<svg version="1.1" id="Camada_1" xmlns="http://www.w3.org/2000/svg" xmlns:xlink="http://www.w3.org/1999/xlink" x="0px" y="0px" viewBox="0 0 52.1 57.4" enable-background="new 0 0 52.1 57.4" xml:space="preserve">
<path fill-rule="evenodd" clip-rule="evenodd" fill="#999999" d="M41.7,18.2h-0.7l-0.6-0.6l4.6-2.6l-0.8-1.3l-4.9,2.8L39,16.3
	l4.5-4.5l-1.1-1.1l-4.5,4.5L37.7,15l2.8-4.9l-1.3-0.8l-2.6,4.6L36,13.2v-0.7c0-2.3,0.7-4.4,2.1-6.1c0.3,0.4,0.8,0.8,1.3,1
	c0.6,0.3,1.3,0.4,2,0.3c0.1,0.5,0.4,0.9,0.7,1.3c0.6,0.6,1.4,0.9,2.2,0.9c-0.1,0.8,0.3,1.6,0.9,2.2c0.4,0.4,0.8,0.6,1.3,0.7
	c-0.1,0.7,0,1.4,0.3,2c0.2,0.5,0.6,1,1,1.3C46.1,17.5,43.9,18.2,41.7,18.2z M41.6,23.9L34,31.5l-1.4-1.4c0.2-0.6,0.2-1.2,0.2-1.8
	c0-0.8-0.2-1.6-0.4-2.3l2.6-2.6c1.2-1.2,1.2-3.1,0-4.3c-1.1-1.1-3.1-1.1-4.3,0l-2.6,2.6c-0.7-0.3-1.5-0.4-2.3-0.4
	c-0.6,0-1.2,0.1-1.8,0.2l-1.4-1.4l7.6-7.6c0.4-0.4,0.9-0.6,1.4-0.6c0.5,0,1.1,0.2,1.4,0.6l8.5,8.5c0.4,0.4,0.6,0.9,0.6,1.4
	C42.2,23,42,23.6,41.6,23.9z M21.4,44.1c-0.8,0.8-2.1,0.8-2.9,0l-8.5-8.5c-0.4-0.4-0.6-0.9-0.6-1.4c0-0.5,0.2-1.1,0.6-1.4l7.6-7.6
	l1.4,1.4c-0.2,0.6-0.2,1.2-0.2,1.8c0,0.8,0.2,1.6,0.4,2.3l-2.6,2.6c-1.2,1.2-1.2,3.1,0,4.3c0.6,0.6,1.4,0.9,2.1,0.9s1.5-0.3,2.1-0.9
	l2.6-2.6c0.7,0.3,1.5,0.4,2.3,0.4c0.6,0,1.2-0.1,1.8-0.2l1.4,1.4L21.4,44.1z M15.7,44.2c0,2.3-0.7,4.4-2.1,6.1
	c-0.3-0.4-0.8-0.8-1.3-1c-0.6-0.3-1.3-0.4-2-0.3c-0.1-0.5-0.4-0.9-0.7-1.3c-0.6-0.6-1.4-0.9-2.2-0.9c0.1-0.8-0.3-1.6-0.9-2.2
	c-0.4-0.4-0.8-0.6-1.3-0.7c0.1-0.7,0-1.4-0.3-2c-0.2-0.5-0.6-1-1-1.3c1.7-1.4,3.9-2.1,6.1-2.1h0.7l0.6,0.6l-4.6,2.6L7.5,43l4.9-2.8
	l0.2,0.2l-4.5,4.5L9.3,46l4.5-4.5l0.2,0.2l-2.8,4.9l1.3,0.8l2.6-4.6l0.6,0.6V44.2z M19.7,25L18.8,24l2.8-2.8l0.9,0.9
	C21.3,22.8,20.3,23.8,19.7,25z M22,34.2l-2.3,2.2c-0.6,0.6-1.5,0.6-2.1,0s-0.6-1.5,0-2.1l2.2-2.3C20.5,33,21.2,33.7,22,34.2z
	 M31.3,28.3c0,3-2.5,5.4-5.4,5.4s-5.4-2.4-5.4-5.4s2.5-5.4,5.4-5.4S31.3,25.3,31.3,28.3z M29.6,22.4l2.3-2.2c0.6-0.6,1.5-0.6,2.1,0
	c0.6,0.6,0.6,1.5,0,2.1l-2.2,2.3C31.2,23.7,30.5,23,29.6,22.4z M32,31.7l0.9,0.9l-2.8,2.8l-0.9-0.9C30.4,33.8,31.3,32.9,32,31.7z
	 M49.9,15.7c-0.1-0.3-0.3-0.5-0.6-0.5c-0.5-0.1-1-0.5-1.2-1c-0.2-0.5-0.2-1.1,0-1.5l0.1-0.3c0.1-0.3,0.1-0.6-0.1-0.8
	c-0.2-0.2-0.5-0.3-0.8-0.3c-0.4,0.1-0.9,0-1.2-0.3c-0.3-0.3-0.4-0.7-0.4-1.1L46.1,9c0.1-0.3,0-0.5-0.2-0.7c-0.2-0.2-0.5-0.3-0.7-0.2
	l-0.7,0.2c-0.4,0.1-0.9-0.1-1.2-0.4c-0.3-0.3-0.4-0.7-0.3-1.2c0.1-0.3,0-0.6-0.3-0.8c-0.2-0.2-0.6-0.2-0.8-0.1L41.6,6
	c-0.5,0.2-1.1,0.3-1.6,0s-0.9-0.7-1-1.2c-0.1-0.3-0.3-0.5-0.5-0.6c-0.3-0.1-0.6,0-0.8,0.2c-2,2-3.1,4.5-3.3,7.3l-0.2-0.2
	c-0.7-0.7-1.6-1.1-2.5-1.1c-1,0-1.9,0.4-2.6,1.1L9,31.6c-0.7,0.7-1.1,1.6-1.1,2.6c0,0.9,0.4,1.9,1.1,2.5l0.2,0.2
	c-2.8,0.2-5.3,1.3-7.3,3.3c-0.2,0.2-0.3,0.5-0.2,0.8c0.1,0.3,0.3,0.5,0.6,0.5c0.5,0.1,1,0.5,1.2,1s0.2,1.1,0,1.6l-0.1,0.2
	c-0.1,0.3-0.1,0.6,0.1,0.8c0.2,0.2,0.5,0.3,0.8,0.3c0.4-0.1,0.9,0,1.2,0.3c0.3,0.3,0.4,0.7,0.4,1.1l-0.1,0.7c-0.1,0.3,0,0.5,0.2,0.7
	c0.2,0.2,0.5,0.3,0.7,0.2l0.7-0.1c0.4-0.1,0.9,0,1.2,0.4s0.4,0.7,0.3,1.2c-0.1,0.3,0,0.6,0.3,0.8c0.2,0.2,0.6,0.2,0.8,0.1l0.2-0.1
	c0.5-0.2,1.1-0.3,1.6,0c0.5,0.2,0.9,0.7,1,1.2c0.1,0.3,0.3,0.5,0.5,0.6c0.1,0,0.1,0,0.2,0c0.2,0,0.4-0.1,0.6-0.2
	c2-2,3.1-4.5,3.3-7.3l0.2,0.2c0.7,0.7,1.6,1.1,2.5,1.1c1,0,1.9-0.4,2.6-1.1L42.7,25c0.7-0.7,1.1-1.6,1.1-2.6c0-1-0.4-1.9-1.1-2.5
	l-0.2-0.2c2.8-0.2,5.3-1.3,7.3-3.3C49.9,16.2,50,15.9,49.9,15.7z"></path>
<path fill-rule="evenodd" clip-rule="evenodd" fill="#999999" d="M28.2,28.3c0,1.3-1.1,2.3-2.3,2.3s-2.3-1.1-2.3-2.3
	s1.1-2.3,2.3-2.3S28.2,27,28.2,28.3z M22,28.3c0,2.1,1.7,3.9,3.9,3.9s3.9-1.7,3.9-3.9s-1.7-3.9-3.9-3.9S22,26.2,22,28.3z"></path>
</svg>