<svg version="1.1" id="Camada_1" xmlns="http://www.w3.org/2000/svg" xmlns:xlink="http://www.w3.org/1999/xlink" x="0px" y="0px" viewBox="0 0 52.1 57.4" enable-background="new 0 0 52.1 57.4" xml:space="preserve">
<path fill-rule="evenodd" clip-rule="evenodd" fill="#999999" d="M15.4,6.8H19V14h-3.6V6.8z M14.5,15.9h5.5c0.5,0,0.9-0.4,0.9-0.9
	V5.9c0-0.5-0.4-0.9-0.9-0.9h-5.5c-0.5,0-0.9,0.4-0.9,0.9v9.1C13.6,15.4,14,15.9,14.5,15.9z"></path>
<path fill-rule="evenodd" clip-rule="evenodd" fill="#999999" d="M23.6,6.8h3.6V14h-3.6V6.8z M22.6,15.9h5.5c0.5,0,0.9-0.4,0.9-0.9
	V5.9C29,5.4,28.6,5,28.1,5h-5.5c-0.5,0-0.9,0.4-0.9,0.9v9.1C21.7,15.4,22.1,15.9,22.6,15.9z"></path>
<path fill-rule="evenodd" clip-rule="evenodd" fill="#999999" d="M31.7,6.8h3.6V14h-3.6V6.8z M30.8,15.9h5.5c0.5,0,0.9-0.4,0.9-0.9
	V5.9c0-0.5-0.4-0.9-0.9-0.9h-5.5c-0.5,0-0.9,0.4-0.9,0.9v9.1C29.9,15.4,30.3,15.9,30.8,15.9z"></path>
<path fill-rule="evenodd" clip-rule="evenodd" fill="#999999" d="M11.3,23.1H32c-1.5,1.8-1.5,4.5,0,6.4H11.3c-1.8,0-3.2-1.4-3.2-3.2
	C8.1,24.5,9.5,23.1,11.3,23.1z M19,18.6v2.7h-3.6v-2.7H19z M27.2,18.6v2.7h-3.6v-2.7H27.2z M11.7,5c0-1,0.8-1.8,1.8-1.8H39v19.3
	c-0.5-0.4-1.2-0.8-1.8-1v-3.8c0-0.5-0.4-0.9-0.9-0.9h-5.5c-0.5,0-0.9,0.4-0.9,0.9v3.6H29v-3.6c0-0.5-0.4-0.9-0.9-0.9h-5.5
	c-0.5,0-0.9,0.4-0.9,0.9v3.6h-0.9v-3.6c0-0.5-0.4-0.9-0.9-0.9h-5.5c-0.5,0-0.9,0.4-0.9,0.9v3.6h-1.8V5z M31.7,21.3v-2.7h3.6v2.7
	H31.7z M39,54H13.6c-1,0-1.8-0.8-1.8-1.8V31.3h24.5c0.5,0,0.9-0.4,0.9-0.9c0-0.5-0.4-0.9-0.9-0.9h-0.4c-1.3,0-2.5-0.8-2.9-2
	c-0.5-1.2-0.2-2.6,0.7-3.5c0.9-0.9,2.3-1.2,3.5-0.7c1.2,0.5,2,1.6,2,2.9V54z M40.8,26.8h1.8v26.8c0,0.3-0.2,0.5-0.5,0.5h-1.4V26.8z
	 M40.8,3.1h1.4c0.3,0,0.5,0.2,0.5,0.5v21.3h-1.8V3.1z M9.9,31.1v21.1c0,2,1.6,3.6,3.6,3.6h28.6c1.3,0,2.3-1,2.3-2.3V3.6
	c0-1.3-1-2.3-2.3-2.3H13.6c-2,0-3.6,1.6-3.6,3.6v16.5c-2.2,0.6-3.6,2.6-3.6,4.8S7.8,30.5,9.9,31.1z"></path>
<path fill-rule="evenodd" clip-rule="evenodd" fill="#999999" d="M34.6,41.5L28.1,48l-1.3-1.3l4.5-4.5c1.3-1.3,1.7-3.4,0.8-5
	c1.1-0.3,2.3,0.2,2.8,1.2C35.6,39.4,35.4,40.7,34.6,41.5L34.6,41.5z M23.6,47.5L17,41c-0.5-0.5-0.7-1.1-0.7-1.8
	c0-0.7,0.3-1.3,0.7-1.8c0.5-0.5,1.1-0.7,1.8-0.7s1.3,0.3,1.8,0.7l2.3,2.2c0.2,0.2,0.4,0.3,0.6,0.3c0.2,0,0.5-0.1,0.6-0.3l2.2-2.2
	c0.5-0.5,1.2-0.8,1.9-0.7c0.7,0,1.4,0.3,1.8,0.8l0.1,0.1c0.9,1,0.8,2.5-0.1,3.5L23.6,47.5z M32.8,35.3c-0.6,0-1.3,0.1-1.8,0.4
	c-1.7-1.4-4.2-1.2-5.8,0.3l-1.6,1.6l-1.6-1.6c-1.7-1.7-4.5-1.7-6.2,0c-1.7,1.7-1.7,4.5,0,6.2l7.2,7.2c0.2,0.2,0.4,0.3,0.6,0.3
	c0.2,0,0.5-0.1,0.6-0.3l1.3-1.3l1.9,1.9c0.2,0.2,0.4,0.3,0.6,0.3s0.5-0.1,0.6-0.3l7.2-7.2c1.2-1.3,1.6-3.1,0.9-4.8
	C36.2,36.4,34.6,35.3,32.8,35.3z"></path>
</svg>