<svg version="1.1" id="Camada_1" xmlns="http://www.w3.org/2000/svg" xmlns:xlink="http://www.w3.org/1999/xlink" x="0px" y="0px" viewBox="0 0 52.1 57.4" enable-background="new 0 0 52.1 57.4" xml:space="preserve">
<path fill-rule="evenodd" clip-rule="evenodd" fill="#999999" d="M13.9,11.1c-1.5,0-2.7,1.2-2.7,2.6v36.1c0,1.5,1.2,2.6,2.7,2.6
	h24.2c1.5,0,2.7-1.2,2.7-2.6V13.7c0-1.5-1.2-2.6-2.7-2.6H13.9z M38.1,54.2H13.9c-2.4,0-4.4-2-4.4-4.4V13.7c0-2.4,2-4.4,4.4-4.4h24.2
	c2.4,0,4.4,2,4.4,4.4v36.1C42.5,52.2,40.5,54.2,38.1,54.2z"></path>
<path fill-rule="evenodd" clip-rule="evenodd" fill="#999999" d="M17.3,9.4h17.3V8.5H17.3V9.4z M35.5,11.1H16.5
	c-0.5,0-0.9-0.4-0.9-0.9V7.6c0-0.5,0.4-0.9,0.9-0.9h19.1c0.5,0,0.9,0.4,0.9,0.9v2.6C36.4,10.7,36,11.1,35.5,11.1z"></path>
<path fill-rule="evenodd" clip-rule="evenodd" fill="#999999" d="M16,4.2c-0.7,0-1.3,0.6-1.3,1.3c0,0.7,0.6,1.3,1.3,1.3H36
	c0.7,0,1.3-0.6,1.3-1.3c0-0.7-0.6-1.3-1.3-1.3H16z M36,8.5H16c-1.7,0-3-1.4-3-3c0-1.7,1.4-3,3-3H36c1.7,0,3,1.4,3,3
	C39,7.1,37.6,8.5,36,8.5z"></path>
<path fill-rule="evenodd" clip-rule="evenodd" fill="#999999" d="M14.7,43.8h22.5V19.7H14.7V43.8z M38.1,45.6H13.9
	c-0.5,0-0.9-0.4-0.9-0.9V18.8c0-0.5,0.4-0.9,0.9-0.9h24.3c0.5,0,0.9,0.4,0.9,0.9v25.9C39,45.2,38.6,45.6,38.1,45.6z"></path>
<path fill="#999999" d="M29.9,33.7c-0.4,0-0.8-0.3-0.8-0.7c-0.2-1.4-0.5-4,0.5-6.3c-2.1,1-4.6,2.8-5.5,5.4c-0.2,0.4-0.7,0.7-1.1,0.5
	c-0.5-0.2-0.7-0.6-0.5-1.1c2-5.6,9.4-7.7,9.7-7.7c0.4-0.1,0.8,0.1,1,0.5c0.2,0.4,0,0.9-0.3,1.1c-2.8,1.7-2.3,6.1-2.1,7.4
	c0.1,0.5-0.2,0.9-0.7,1L29.9,33.7z"></path>
<path fill-rule="evenodd" clip-rule="evenodd" fill="#999999" d="M19.3,25.3c1.3,0.4,4.2,0.7,9.5-1.9c-0.8-0.5-2.1-1.1-3.6-1
	C23.2,22.5,21.2,23.4,19.3,25.3z M21.1,27.3c-2.6,0-3.7-1-3.9-1.2c-0.3-0.3-0.3-0.9,0-1.2c2.5-2.7,5.2-4.2,7.9-4.2
	c3.5-0.1,5.8,2.2,5.9,2.2c0.2,0.2,0.3,0.5,0.2,0.7c0,0.3-0.2,0.5-0.5,0.6C26.4,26.6,23.3,27.3,21.1,27.3z"></path>
<path fill-rule="evenodd" clip-rule="evenodd" fill="#999999" d="M28.4,33.6c-0.7,0-1.1,0.1-1.5,0.4c-0.8,0.8-1.3,1.9-1.3,3
	c0,2.4,1.9,4.3,4.3,4.3s4.3-1.9,4.3-4.3c0-1.1-0.4-2.2-1.3-3c-0.5-0.5-1.1-0.5-2.2-0.4c-0.6,0-1.1,0-1.7,0L28.4,33.6z M29.9,43.1
	c-3.3,0-6-2.7-6-6c0-1.6,0.6-3.1,1.8-4.2c1-1,2.3-1,3.5-0.9c0.5,0,1,0,1.6,0c1.2,0,2.5-0.1,3.5,0.9c1.1,1.1,1.8,2.6,1.8,4.2
	C36,40.4,33.3,43.1,29.9,43.1z"></path>
<path fill="#999999" d="M21.7,42.2c-3.4,0-6.1-2.7-6.1-6c0-1.6,0.6-3.1,1.8-4.2c1-1,2.4-1,3.5-0.9c0.5,0,1.1,0,1.6,0
	C23.7,31,25,31,26,32c0.3,0.2,0.5,0.5,0.7,0.8l-1.4,1c-0.2-0.2-0.3-0.4-0.5-0.6c-0.5-0.5-1.1-0.5-2.2-0.4c-0.6,0-1.2,0-1.7,0
	c-1.1,0-1.8,0-2.2,0.4c-0.8,0.8-1.3,1.9-1.3,3c0,2.4,2,4.3,4.4,4.3c1.2,0,2.4-0.5,3.2-1.4l1.2,1.2C25,41.5,23.4,42.2,21.7,42.2z"></path>
</svg>