<svg xmlns="http://www.w3.org/2000/svg" version="1.1" x="0px" y="0px" viewBox="0 0 566 591.3" enable-background="new 0 0 566 591.3" xml:space="preserve" style="shape-rendering:geometricPrecision; text-rendering:geometricPrecision; image-rendering:optimizeQuality; fill-rule:evenodd; clip-rule:evenodd" xmlns:xlink="http://www.w3.org/1999/xlink">
<g><path style="opacity:0.991" fill="#CF7650" d="M 275.5,7.5 C 290.904,6.13571 304.57,10.3024 316.5,20C 329.196,33.0295 342.196,45.6962 355.5,58C 357.087,58.8624 358.754,59.5291 360.5,60C 380.647,57.9325 400.813,55.7658 421,53.5C 445.588,54.2914 461.921,66.2914 470,89.5C 473.359,109.661 477.359,129.661 482,149.5C 484.205,152.04 486.705,154.207 489.5,156C 502.833,163 516.167,170 529.5,177C 554.609,192.311 562.776,214.144 554,242.5C 546.333,258.5 538.667,274.5 531,290.5C 529,294.833 529,299.167 531,303.5C 539.72,320.996 548.053,338.662 556,356.5C 560.95,377.646 555.45,395.48 539.5,410C 522.981,420.095 505.981,429.428 488.5,438C 484.183,440.315 481.35,443.815 480,448.5C 476.795,466.859 473.461,485.193 470,503.5C 460.801,529.684 442.301,541.851 414.5,540C 397.592,537.68 380.759,535.18 364,532.5C 360.103,533.031 356.603,534.531 353.5,537C 339.772,551.397 325.439,565.063 310.5,578C 290.728,589.554 271.395,588.887 252.5,576C 239.529,564.03 226.862,551.696 214.5,539C 210.714,535.774 206.381,533.607 201.5,532.5C 182.592,535.725 163.592,538.392 144.5,540.5C 120.604,539.425 104.438,527.758 96,505.5C 92.319,485.076 88.319,464.743 84,444.5C 82.1667,442.667 80.3333,440.833 78.5,439C 61.3396,429.921 44.3396,420.587 27.5,411C 9.3207,395.12 3.8207,375.62 11,352.5C 20.2062,334.259 28.7062,315.759 36.5,297C 35.6702,294.198 34.8368,291.365 34,288.5C 25.7269,271.621 17.7269,254.621 10,237.5C 4.83742,216.656 10.0041,198.823 25.5,184C 43.1777,173.493 61.1777,163.493 79.5,154C 82.8071,151.222 84.9738,147.722 86,143.5C 89.0102,125.105 92.3436,106.772 96,88.5C 106.529,61.9799 126.029,50.4799 154.5,54C 171.448,56.771 188.448,58.771 205.5,60C 207.5,59 209.5,58 211.5,57C 224.529,43.6372 237.862,30.6372 251.5,18C 258.745,12.5387 266.745,9.03871 275.5,7.5 Z M 280.5,41.5 C 284.813,41.5483 288.813,42.715 292.5,45C 305.529,58.3628 318.862,71.3628 332.5,84C 344.7,93.133 358.367,96.4664 373.5,94C 389.317,91.7104 405.15,89.5437 421,87.5C 428.77,87.6011 434.104,91.2678 437,98.5C 440.559,118.187 444.226,137.853 448,157.5C 451.724,168.112 458.224,176.612 467.5,183C 484.66,192.079 501.66,201.413 518.5,211C 524.084,217.584 524.917,224.751 521,232.5C 512.788,248.257 505.121,264.257 498,280.5C 494.485,292.281 494.818,303.947 499,315.5C 506.667,331.5 514.333,347.5 522,363.5C 525.057,371.661 523.223,378.495 516.5,384C 499.833,393 483.167,402 466.5,411C 456.914,418.323 450.414,427.823 447,439.5C 443.892,456.481 440.892,473.481 438,490.5C 436.619,500.048 431.119,505.381 421.5,506.5C 402.392,503.413 383.225,500.746 364,498.5C 351.321,498.725 340.155,502.892 330.5,511C 318.833,522.667 307.167,534.333 295.5,546C 288.319,552.465 280.652,553.132 272.5,548C 259.471,534.637 246.138,521.637 232.5,509C 223.489,502.249 213.322,498.749 202,498.5C 182.61,500.794 163.277,503.461 144,506.5C 135.543,505.375 130.21,500.708 128,492.5C 124.795,474.141 121.461,455.807 118,437.5C 114.453,425.917 107.62,416.75 97.5,410C 80.3396,400.921 63.3396,391.587 46.5,382C 42.3759,376.683 41.2092,370.85 43,364.5C 51,347.833 59,331.167 67,314.5C 71.7616,301.72 71.4282,289.053 66,276.5C 57.1269,258.925 48.9603,241.092 41.5,223C 42.2513,217.832 44.5846,213.498 48.5,210C 67.3193,200.426 85.6527,190.093 103.5,179C 111.356,171.795 116.523,162.962 119,152.5C 122,135.167 125,117.833 128,100.5C 130.544,92.4714 136.044,88.138 144.5,87.5C 163.45,90.3026 182.45,92.6359 201.5,94.5C 213.953,94.7384 224.953,90.9051 234.5,83C 247.529,69.6372 260.862,56.6372 274.5,44C 276.611,43.1553 278.611,42.322 280.5,41.5 Z"/></g>
<g><path style="opacity:0.99" fill="#CF7650" d="M 106.5,239.5 C 117.505,239.333 128.505,239.5 139.5,240C 151.708,258.246 163.541,276.746 175,295.5C 175.5,276.836 175.667,258.17 175.5,239.5C 183.833,239.5 192.167,239.5 200.5,239.5C 200.5,273.5 200.5,307.5 200.5,341.5C 191.475,341.832 182.475,341.498 173.5,340.5C 160,318.833 146.5,297.167 133,275.5C 132.5,297.497 132.333,319.497 132.5,341.5C 123.833,341.5 115.167,341.5 106.5,341.5C 106.5,307.5 106.5,273.5 106.5,239.5 Z"/></g>
<g><path style="opacity:1" fill="#CF7650" d="M 225.5,239.5 C 250.5,239.5 275.5,239.5 300.5,239.5C 300.5,246.167 300.5,252.833 300.5,259.5C 284.833,259.5 269.167,259.5 253.5,259.5C 253.5,265.167 253.5,270.833 253.5,276.5C 268.167,276.5 282.833,276.5 297.5,276.5C 297.5,283.167 297.5,289.833 297.5,296.5C 282.833,296.5 268.167,296.5 253.5,296.5C 253.5,304.833 253.5,313.167 253.5,321.5C 269.167,321.5 284.833,321.5 300.5,321.5C 300.5,328.167 300.5,334.833 300.5,341.5C 275.5,341.5 250.5,341.5 225.5,341.5C 225.5,307.5 225.5,273.5 225.5,239.5 Z"/></g>
<g><path style="opacity:0.989" fill="#CF7650" d="M 313.5,239.5 C 323.167,239.5 332.833,239.5 342.5,239.5C 347.01,261.884 351.844,284.217 357,306.5C 363.309,284.599 369.309,262.599 375,240.5C 379.586,239.847 384.253,239.513 389,239.5C 393.919,239.532 398.586,240.199 403,241.5C 408.513,263.221 414.18,284.888 420,306.5C 425.328,284.189 430.495,261.855 435.5,239.5C 444.857,239.168 454.19,239.502 463.5,240.5C 454.029,274.05 445.029,307.716 436.5,341.5C 426.167,341.5 415.833,341.5 405.5,341.5C 400.16,320.32 394.327,299.32 388,278.5C 382.188,299.434 376.688,320.434 371.5,341.5C 361.167,341.5 350.833,341.5 340.5,341.5C 331.5,307.501 322.5,273.501 313.5,239.5 Z"/></g>
</svg>
