<?xml version="1.0" encoding="iso-8859-1"?>
<!-- Uploaded to: SVG Repo, www.svgrepo.com, Generator: SVG Repo Mixer Tools -->
<svg fill="#000000" version="1.1" id="Layer_1" xmlns="http://www.w3.org/2000/svg" xmlns:xlink="http://www.w3.org/1999/xlink" 
	 viewBox="0 0 496 496" xml:space="preserve">
<g>
	<g>
		<g>
			<path d="M429.192,264c1.744-3.648,2.808-7.688,2.808-12c0-15.44-12.56-28-28-28h-3.72c-0.096,0-0.184,0.024-0.28,0.024V168h16V72
				h-74.088C348.208,64.384,352,54.624,352,44c0-24.256-19.744-44-44-44h-6.184c-10.888,0-21.344,4.016-29.432,11.296L208,69.24
				l-64.384-57.944C135.528,4.016,125.08,0,114.184,0H108C83.744,0,64,19.744,64,44c0,10.624,3.792,20.384,10.088,28H0v96h16v240
				h16.408c-0.264,2.632-0.408,5.296-0.408,8c0,44.112,35.888,80,80,80s80-35.888,80-80c0-2.704-0.144-5.368-0.408-8H224v88h256V344
				h16v-80H429.192z M400,88v64H256V88h32h20H400z M274.808,264H256v-96h128v61.312c-1.224,0.88-2.432,1.8-3.512,2.888L352,260.688
				l-28.488-28.48c-5.288-5.296-12.32-8.208-19.792-8.208H300c-15.44,0-28,12.56-28,28C272,256.312,273.064,260.352,274.808,264z
				 M283.088,23.184C288.232,18.552,294.88,16,301.816,16H308c15.44,0,28,12.56,28,28s-12.56,28-28,28h-20h-59.152L283.088,23.184z
				 M240,88v64h-64V88H240z M108,16h6.184c6.928,0,13.576,2.552,18.728,7.184L187.152,72H128h-20c-15.44,0-28-12.56-28-28
				S92.56,16,108,16z M16,88h92h20h32v64H16V88z M32,392V168h128v184.152c-4.936-3.72-10.272-6.92-16-9.424V320
				c0-8.824-7.176-16-16-16h-8v-72h-16v72h-8c-8.816,0-16,7.176-16,16v22.728C58.992,351.944,42.656,369.896,35.688,392H32z
				 M128,320v17.616c-5.168-1.056-10.52-1.616-16-1.616s-10.832,0.56-16,1.616V320H128z M112,480c-35.288,0-64-28.712-64-64
				c0-35.288,28.712-64,64-64s64,28.712,64,64C176,451.288,147.288,480,112,480z M224,392h-35.688
				c-2.76-8.76-7.056-16.824-12.464-24H176V168h64v96h-32v80h16V392z M320,480h-80V344h80V480z M320,328h-96v-48h76h12h8V328z
				 M312,264h-12c-6.616,0-12-5.384-12-12c0-6.616,5.384-12,12-12h3.72c3.2,0,6.216,1.248,8.488,3.52l20.48,20.48H312z M368,480h-32
				V344h32V480z M368,328h-32v-48h32V328z M391.8,243.52c2.264-2.264,5.28-3.52,8.488-3.52H404c6.616,0,12,5.384,12,12
				c0,6.616-5.384,12-12,12h-12h-20.688L391.8,243.52z M464,480h-80V344h80V480z M480,328h-96v-48h8h12h76V328z"/>
			<path d="M64,416h16c0-17.648,14.352-32,32-32v-16C85.528,368,64,389.528,64,416z"/>
			<rect x="432" y="360" width="16" height="72"/>
			<rect x="432" y="448" width="16" height="16"/>
		</g>
	</g>
</g>
</svg>