<svg version="1.1" id="Camada_1" xmlns="http://www.w3.org/2000/svg" xmlns:xlink="http://www.w3.org/1999/xlink" x="0px" y="0px" viewBox="0 0 566 591.3" enable-background="new 0 0 566 591.3" xml:space="preserve">
<path fill-rule="evenodd" clip-rule="evenodd" fill="#84B400" d="M501.8,319.5l21.2,44.1c4,8.4,0.9,18.2-7.2,22.5l-42.9,23.1
	c-13.7,7.2-23.1,20.4-25.7,35.7l-8.4,48.4c-1.6,9.1-10,15.2-19.1,13.9l-48.1-6.8c-15.3-2.2-30.5,2.7-41.6,13.6l-35,34.2
	c-6.5,6.4-16.9,6.4-23.4,0l-35-34.2c-9.4-9.1-21.7-14.2-34.5-14.2c-2.3,0-4.8,0.1-7.1,0.6l-48.1,6.8c-9.1,1.3-17.5-4.8-19.1-13.9
	l-8.4-48.4c-2.6-15.3-12-28.5-25.7-35.7l-42.9-23.1c-8.1-4.3-11.3-14.2-7.2-22.5l21.2-44.1c6.9-14,6.9-30.2,0-44.2l-21.2-44.1
	c-4-8.4-0.9-18.2,7.2-22.5l42.9-23.1c13.7-7.2,23.1-20.4,25.7-35.7l8.4-48.4c1.6-9.1,10-15.2,19.1-13.9l48.1,6.8
	c15.3,2.2,30.5-2.7,41.6-13.6l35-34.2c6.5-6.4,16.9-6.4,23.4,0l35,34.2c11.1,10.8,26.3,15.8,41.6,13.6l48.1-6.8
	c9.1-1.3,17.5,4.8,19.1,13.9l8.4,48.4c2.6,15.3,12,28.5,25.7,35.7l42.9,23.1c8.1,4.3,11.3,14.2,7.2,22.5l-21.2,44.1
	C494.9,289.3,494.9,305.4,501.8,319.5z M531.4,304.9c-2.3-4.8-2.3-10.3,0-15l21.4-44.1c11.8-24.6,2.5-53.8-21.5-66.6l-42.9-23
	c-4.6-2.5-7.8-6.9-8.7-12.1l-8.4-48.4c-4.8-26.9-29.3-44.9-56.2-41.2L367,61.4c-5.2,0.7-10.3-1-14-4.6l-35-34.1
	c-19.5-19.1-49.9-19.1-69.4,0l-35,34.1c-3.8,3.6-8.8,5.3-14,4.6l-48.1-6.9c-26.9-3.8-51.4,14.3-56.2,41.2L87,144
	c-0.9,5.2-4,9.5-8.7,12.1l-42.9,23C11.4,192,2,221.2,14,245.8l21.2,44.1c2.3,4.8,2.3,10.3,0,15l-21.4,44.1
	c-11.8,24.6-2.5,53.8,21.5,66.6l42.9,23c4.6,2.6,7.8,6.9,8.7,12.1l8.4,48.4c4.3,24.4,25.1,41.6,49,41.6c2.5,0,4.8-0.1,7.2-0.4
	l48.1-6.9c5.2-0.7,10.3,1,14,4.6l35,34.1c9.7,9.5,22.3,14.3,34.7,14.3c12.4,0,25-4.8,34.7-14.3l35-34.1c3.8-3.6,8.8-5.3,14-4.6
	l48.1,6.9c26.9,3.8,51.4-14.3,56.2-41.2l8.4-48.4c0.9-5.2,4-9.5,8.7-12.1l42.9-23c24-12.9,33.4-42,21.5-66.6L531.4,304.9z"></path>
<path fill="#84B400" d="M403.9,175.5c-6.4-6.5-16.8-6.5-23.3,0L162.8,395.6c-6.5,6.5-6.5,17.1,0,23.6c3.2,3.2,7.4,4.9,11.6,4.9
	c4.3,0,8.5-1.7,11.7-4.9l217.8-220.1C410.4,192.6,410.4,182,403.9,175.5z"></path>
<path fill-rule="evenodd" clip-rule="evenodd" fill="#84B400" d="M217.3,180.7c15.2,0,27.6,12.4,27.6,27.7s-12.4,27.7-27.6,27.7
	s-27.5-12.4-27.5-27.7S202.1,180.7,217.3,180.7z M217.3,269.6c33.4,0,60.5-27.5,60.5-61.1s-27.2-61.1-60.5-61.1
	s-60.5,27.5-60.5,61.1S183.9,269.6,217.3,269.6z"></path>
<path fill-rule="evenodd" clip-rule="evenodd" fill="#84B400" d="M349.4,414c-15.2,0-27.6-12.4-27.6-27.7
	c0-15.3,12.4-27.7,27.6-27.7c15.2,0,27.5,12.4,27.5,27.7C376.8,401.5,364.5,414,349.4,414z M349.4,325.1
	c-33.4,0-60.5,27.5-60.5,61.1s27.2,61.1,60.5,61.1s60.5-27.5,60.5-61.1S382.8,325.1,349.4,325.1z"></path>
</svg>