<svg version="1.1" id="Camada_1" xmlns="http://www.w3.org/2000/svg" xmlns:xlink="http://www.w3.org/1999/xlink" x="0px" y="0px" viewBox="0 0 52.1 57.4" enable-background="new 0 0 52.1 57.4" xml:space="preserve">
<path fill-rule="evenodd" clip-rule="evenodd" fill="#999999" d="M27.3,35c0,1.7-0.4,3.2-1.2,4.4c-0.7,1.1-1.7,1.7-2.7,1.7
	c-1,0-2-0.6-2.7-1.7c-0.8-1.2-1.2-2.7-1.2-4.4s0.4-3.2,1.2-4.4c0.7-1.1,1.7-1.7,2.7-1.7c1,0,2,0.6,2.7,1.7
	C26.8,31.8,27.3,33.3,27.3,35z M23.3,27.9c-1.4,0-2.7,0.8-3.6,2.2c-0.9,1.3-1.4,3.1-1.4,4.9s0.5,3.6,1.4,4.9c1,1.4,2.2,2.2,3.6,2.2
	c1.4,0,2.7-0.8,3.6-2.2c0.9-1.3,1.4-3.1,1.4-4.9s-0.5-3.6-1.4-4.9C26,28.7,24.7,27.9,23.3,27.9z M28.4,45c0,0.8-0.4,1.7-1.3,1.7
	h-7.6c-1,0-1.3-0.9-1.3-1.7c0-0.1-0.1-11.8-0.1-13.9c0-3.2,1.1-5.9,2.2-7.1c0.1-0.1,0.2-0.2,0.2-0.3h3.4c0.3,0,0.5-0.2,0.5-0.5
	c0-0.3-0.2-0.5-0.5-0.5h-3.1l0.6-8.2h1.9c0.3,0,0.5-0.2,0.5-0.5c0-0.3-0.2-0.5-0.5-0.5h-2.2c-0.1,0-0.3-0.1-0.3-0.3v-0.2
	c0.1,0,0.3,0.1,0.4,0.1c0.5,0,0.9-0.2,1.2-0.5h2.9c0.1,0,0.2,0.1,0.3,0.2l0,0.1v0.3c0,0.1-0.1,0.3-0.3,0.3h-0.1
	c-0.3,0-0.5,0.2-0.5,0.5c0,0.3,0.2,0.5,0.4,0.5l0.6,8.2h-0.1c-0.3,0-0.5,0.2-0.5,0.5c0,0.3,0.2,0.5,0.5,0.5h0.4
	c0.1,0.1,0.1,0.2,0.2,0.3c1.1,1.2,2.2,4,2.2,7.1C28.5,33.2,28.4,44.9,28.4,45z M21.3,10.5c0.2,0,0.5,0.1,0.6,0.3
	c0.1,0.1,0.3,0.2,0.4,0.2s0.3-0.1,0.4-0.2c0.1-0.2,0.4-0.3,0.6-0.3c0.2,0,0.4,0.1,0.6,0.3c0.1,0.1,0.3,0.2,0.4,0.2s0.3-0.1,0.4-0.2
	c0.1-0.2,0.4-0.3,0.6-0.3c0.4,0,0.8,0.3,0.8,0.7c0,0.1,0,0.3-0.1,0.4c-0.2-0.1-0.3-0.1-0.5-0.1h-3.1c-0.2,0-0.4,0-0.5,0.2
	c-0.1,0.2-0.4,0.3-0.6,0.3c-0.4,0-0.8-0.3-0.8-0.7C20.5,10.8,20.9,10.5,21.3,10.5z M27.2,23.3c-0.2-0.2-0.3-0.5-0.3-0.7v0l-0.6-8.5
	c0.3-0.2,0.5-0.6,0.5-1v-0.3c0-0.1,0-0.2,0-0.3l0-0.1c0.3-0.3,0.4-0.7,0.4-1.1c0-1-0.8-1.8-1.8-1.8c-0.4,0-0.7,0.1-1,0.3
	c-0.3-0.2-0.7-0.3-1-0.3c-0.4,0-0.7,0.1-1,0.3c-0.3-0.2-0.7-0.3-1-0.3c-1,0-1.8,0.8-1.8,1.8c0,0.4,0.2,0.8,0.4,1.1l0,0.1
	c0,0.1-0.1,0.3-0.1,0.4v0.3c0,0.4,0.2,0.8,0.5,1l-0.6,8.5v0c0,0.2-0.1,0.5-0.3,0.7c-1.2,1.4-2.4,4.3-2.4,7.7c0,2.1,0.1,13.8,0.1,14
	c0,1.6,1,2.7,2.4,2.7h7.6c1.4,0,2.4-1.1,2.4-2.7c0-0.1,0.1-11.8,0.1-14C29.6,27.8,28.4,24.7,27.2,23.3z"></path>
<path fill-rule="evenodd" clip-rule="evenodd" fill="#999999" d="M5.9,20.4C6,20.3,6,20.2,6,20.1v-1.6h3.1v1.1H7.1v1.1h2.4
	c1.1,1.3,3.4,4.5,3.4,6v1.1H4.4v-1.5l1.5-2.6L5,23.1l-1.6,2.7c-0.1,0.1-0.1,0.2-0.1,0.3v1.6h-1v-1.1C2.3,25,4.9,21.6,5.9,20.4z
	 M5,15.1H6v1.1h1v-1.1h1.1v1.1h1.1v-1.1h1v2.2H5V15.1z M12.8,37.6H2.3v-8.7h10.5V37.6z M12.8,43.6c0,1.2-0.9,2.2-2.1,2.2H9.7
	c0.3-0.5,0.5-1,0.5-1.6h-1c0,0.9-0.7,1.6-1.6,1.6S6,45,6,44.1H5c0,0.6,0.2,1.2,0.5,1.6H4.4c-1.2,0-2.1-1-2.1-2.2v-4.9h10.5V43.6z
	 M1.3,26.6v17c0,1.8,1.4,3.3,3.1,3.3h6.3c1.7,0,3.1-1.5,3.1-3.3v-17c0-2.2-2.9-5.9-3.7-6.8v-1.4h0.5c0.3,0,0.5-0.2,0.5-0.5v-3.3
	c0-0.3-0.2-0.5-0.5-0.5H4.4c-0.3,0-0.5,0.2-0.5,0.5v3.3c0,0.3,0.2,0.5,0.5,0.5H5v1.4C4.2,20.8,1.3,24.5,1.3,26.6z"></path>
<rect x="5" y="39.7" fill="#999999" width="1.1" height="1.1"></rect>
<rect x="5" y="41.9" fill="#999999" width="1.1" height="1.1"></rect>
<path fill-rule="evenodd" clip-rule="evenodd" fill="#999999" d="M9.7,31.5c0.2,0.4,0.4,0.8,0.5,1.2c0,0.3-0.2,0.5-0.5,0.5
	c-0.3,0-0.5-0.3-0.5-0.5C9.3,32.2,9.4,31.8,9.7,31.5z M9.7,34.3c0.9,0,1.6-0.7,1.6-1.6c0-0.7-0.8-2-1.1-2.5C10,30,9.9,29.9,9.7,29.9
	c-0.2,0-0.3,0.1-0.4,0.2c-0.3,0.5-1.1,1.8-1.1,2.5C8.1,33.5,8.8,34.3,9.7,34.3z"></path>
<path fill-rule="evenodd" clip-rule="evenodd" fill="#999999" d="M6,32.4c0.6,0.7,1,1.5,1,1.9c0,0.6-0.5,1.1-1,1.1
	c-0.6,0-1.1-0.5-1.1-1.1C5,33.9,5.5,33.1,6,32.4z M6,36.5c1.2,0,2.1-1,2.1-2.2c0-1.1-1.4-2.8-1.7-3.1C6.3,31.1,6.2,31,6,31
	s-0.3,0.1-0.4,0.2c-0.3,0.3-1.7,2-1.7,3.1C3.9,35.5,4.9,36.5,6,36.5z"></path>
<path fill-rule="evenodd" clip-rule="evenodd" fill="#999999" d="M36.6,45.6v-1.3H47v1.3H36.6z M35,41.7h13.7L47.4,43H36.3L35,41.7z
	 M47,18.7v1.3H36.6v-1.3H47z M40.6,15.3h2.6l-0.3,2.1h-2L40.6,15.3z M48.7,22.5H35l1.3-1.3h11.1L48.7,22.5z M49.6,23.8v3.9
	c-4.6-1.5-9.7,8.2-15.5,3.4v-7.3H49.6z M34.1,40.4v-6.1c5.9,6.3,10.9-2.1,15.5,0.6v5.5H34.1z M50.7,22.7l-2.4-2.4V18
	c0-0.3-0.3-0.6-0.7-0.6h-3.5l0.3-2c0-0.3-0.1-0.7-0.3-0.9c-0.2-0.3-0.6-0.4-1-0.4h-2.6c-0.4,0-0.8,0.2-1,0.5
	c-0.2,0.3-0.3,0.6-0.3,0.9l0.3,2H36c-0.4,0-0.7,0.3-0.7,0.6v2.3L33,22.7c-0.1,0.1-0.2,0.3-0.2,0.5v17.9c0,0.2,0.1,0.3,0.2,0.5
	l2.4,2.4v2.3c0,0.4,0.3,0.6,0.7,0.6h11.6c0.4,0,0.7-0.3,0.7-0.6v-2.3l2.4-2.4c0.1-0.1,0.2-0.3,0.2-0.5V23.1
	C50.9,23,50.8,22.8,50.7,22.7z"></path>
</svg>