<svg version="1.1" id="Camada_1" xmlns="http://www.w3.org/2000/svg" xmlns:xlink="http://www.w3.org/1999/xlink" x="0px" y="0px" viewBox="0 0 52.1 57.4" enable-background="new 0 0 52.1 57.4" xml:space="preserve">
<path fill-rule="evenodd" clip-rule="evenodd" fill="#999999" d="M34.6,31.6c-0.4,0-0.8-0.4-0.8-0.8c0-0.4,0.4-0.8,0.8-0.8
	c0.4,0,0.8,0.4,0.8,0.8C35.3,31.2,35,31.6,34.6,31.6z M34.6,28.4c-1.3,0-2.3,1-2.3,2.3c0,1.3,1,2.3,2.3,2.3c1.3,0,2.3-1,2.3-2.3
	C36.9,29.5,35.8,28.4,34.6,28.4z"></path>
<path fill-rule="evenodd" clip-rule="evenodd" fill="#999999" d="M42.3,20.7c-0.4,0-0.8-0.4-0.8-0.8c0-0.4,0.3-0.8,0.8-0.8
	c0.4,0,0.8,0.4,0.8,0.8C43.1,20.4,42.7,20.7,42.3,20.7z M42.3,17.6c-1.3,0-2.3,1-2.3,2.3c0,1.3,1,2.3,2.3,2.3c1.3,0,2.3-1,2.3-2.3
	C44.6,18.7,43.6,17.6,42.3,17.6z"></path>
<path fill-rule="evenodd" clip-rule="evenodd" fill="#999999" d="M45.4,40.8c0,0.4-0.3,0.8-0.8,0.8h-17h-3.1c-0.4,0-0.8-0.3-0.8-0.8
	c0-0.4,0.3-0.8,0.8-0.8h3.1h3.1v-1.5h-3.1c-0.4,0-0.8-0.4-0.8-0.8c0-0.4,0.4-0.8,0.8-0.8h20.1c0.4,0,0.8,0.4,0.8,0.8
	c0,0.4-0.4,0.8-0.8,0.8h-3.1H32.2v1.5h12.4C45.1,40.1,45.4,40.4,45.4,40.8z M48.5,43.9c0,0.4-0.4,0.8-0.8,0.8h-3.1h-17
	c-0.4,0-0.8-0.4-0.8-0.8c0-0.4,0.4-0.8,0.8-0.8h17h3.1C48.1,43.2,48.5,43.5,48.5,43.9z M45.4,47c0,0.4-0.3,0.8-0.8,0.8h-2.3v1.5h2.3
	h3.1c0.4,0,0.8,0.4,0.8,0.8c0,0.4-0.4,0.8-0.8,0.8H27.6c-0.4,0-0.8-0.4-0.8-0.8c0-0.4,0.4-0.8,0.8-0.8h13.2v-1.5H27.6h-3.1
	c-0.4,0-0.8-0.3-0.8-0.8c0-0.4,0.3-0.8,0.8-0.8h3.1h17C45.1,46.3,45.4,46.6,45.4,47z M26.8,24.6c0-6,4.9-10.8,10.8-10.8
	c6,0,10.8,4.9,10.8,10.8c0,6-4.9,10.8-10.8,10.8C31.7,35.4,26.8,30.6,26.8,24.6z M23.7,27.7c-0.4,0-0.7-0.1-1-0.4l-0.5-0.5l-0.5,0.5
	c-0.6,0.5-1.5,0.5-2.1,0l-0.5-0.5l-0.5,0.5c-0.6,0.5-1.5,0.5-2.1,0L16,26.8l-0.5,0.5c-0.6,0.5-1.5,0.5-2.1,0l-0.5-0.5l-0.5,0.5
	c-0.3,0.3-0.7,0.4-1,0.4c-0.9,0-1.6-0.7-1.6-1.5c0-0.5,0.2-0.8,0.4-1l0.5-0.5l-0.5-0.5c-0.2-0.2-0.4-0.6-0.4-1s0.2-0.8,0.4-1
	l0.5-0.5L10.2,21c-0.2-0.2-0.4-0.6-0.4-1c0-0.5,0.2-0.8,0.4-1l0.5-0.5l-0.5-0.5c-0.2-0.2-0.4-0.6-0.4-1s0.2-0.8,0.4-1l0.5-0.5
	l-0.5-0.5c-0.2-0.2-0.4-0.6-0.4-1c0-0.5,0.2-0.8,0.4-1l0.5-0.5l-0.5-0.5c-0.2-0.2-0.4-0.6-0.4-1c0-0.5,0.2-0.8,0.4-1l0.5-0.5
	l-0.5-0.5C10,8.4,9.8,8,9.8,7.6c0-0.9,0.7-1.6,1.6-1.6c0.4,0,0.7,0.1,1,0.4l0.5,0.5l0.5-0.5c0.6-0.5,1.5-0.5,2.1,0L16,6.9l0.5-0.5
	c0.6-0.5,1.5-0.5,2.1,0l0.5,0.5l0.5-0.5c0.6-0.5,1.5-0.5,2.1,0l0.5,0.5l0.5-0.5C23,6.1,23.3,6,23.7,6c0.9,0,1.5,0.7,1.5,1.6
	c0,0.5-0.2,0.8-0.4,1l-0.5,0.5l0.5,0.5c0.2,0.2,0.4,0.6,0.4,1c0,0.5-0.2,0.8-0.4,1l-0.5,0.5l0.5,0.5c0.2,0.2,0.4,0.5,0.4,1
	c0,0.5-0.2,0.8-0.4,1l-0.5,0.5l0.5,0.5c0.2,0.2,0.4,0.6,0.4,1s-0.2,0.8-0.4,1l-0.5,0.5l0.5,0.5c0.2,0.2,0.4,0.6,0.4,1
	c0,0.5-0.2,0.8-0.4,1l-0.5,0.5l0.5,0.5c0.2,0.2,0.4,0.6,0.4,1s-0.2,0.8-0.4,1l-0.5,0.5l0.5,0.5c0.2,0.2,0.4,0.6,0.4,1
	C25.3,27,24.6,27.7,23.7,27.7z M18.7,32.8c0.2,0.2,0.4,0.6,0.4,1s-0.2,0.8-0.4,1l-0.5,0.5l0.5,0.5c0.2,0.2,0.4,0.6,0.4,1
	s-0.2,0.8-0.4,1l-0.5,0.5l0.5,0.5c0.2,0.2,0.4,0.6,0.4,1s-0.2,0.8-0.4,1l-0.5,0.5l0.5,0.5c0.2,0.2,0.4,0.6,0.4,1
	c0,0.5-0.2,0.8-0.4,1l-0.5,0.5l0.5,0.5c0.2,0.2,0.4,0.6,0.4,1s-0.2,0.8-0.4,1l-0.5,0.5l0.5,0.5c0.2,0.2,0.4,0.6,0.4,1
	c0,0.9-0.7,1.6-1.5,1.6c-0.4,0-0.7-0.1-1-0.4L16,50l-0.5,0.5c-0.6,0.5-1.5,0.5-2.1,0L12.9,50l-0.5,0.5c-0.6,0.5-1.5,0.5-2.1,0
	L9.8,50l-0.5,0.5c-0.6,0.5-1.5,0.5-2.1,0L6.7,50l-0.5,0.5c-0.3,0.3-0.7,0.4-1,0.4c-0.9,0-1.6-0.7-1.6-1.6c0-0.5,0.2-0.8,0.4-1
	l0.5-0.5L4,47.3c-0.2-0.2-0.4-0.6-0.4-1s0.2-0.8,0.4-1l0.5-0.5L4,44.2c-0.2-0.2-0.4-0.5-0.4-1c0-0.5,0.2-0.8,0.4-1l0.5-0.5L4,41.1
	c-0.2-0.2-0.4-0.6-0.4-1s0.2-0.8,0.4-1l0.5-0.5L4,38c-0.2-0.2-0.4-0.6-0.4-1s0.2-0.8,0.4-1l0.5-0.5L4,34.9c-0.2-0.2-0.4-0.6-0.4-1
	s0.2-0.8,0.4-1l0.5-0.5L4,31.8c-0.2-0.2-0.4-0.6-0.4-1c0-0.9,0.7-1.5,1.6-1.5c0.4,0,0.7,0.1,1,0.4l0.5,0.5l0.5-0.5
	c0.6-0.5,1.5-0.5,2.1,0l0.5,0.5l0.5-0.5c0.6-0.5,1.5-0.5,2.1,0l0.5,0.5l0.5-0.5c0.6-0.5,1.5-0.5,2.1,0l0.5,0.5l0.5-0.5
	c0.3-0.3,0.7-0.4,1-0.4c0.9,0,1.5,0.7,1.5,1.5c0,0.5-0.2,0.8-0.4,1l-0.5,0.5L18.7,32.8z M50,37.7c0-1.3-1-2.3-2.3-2.3h-4.1
	c3.8-2.1,6.4-6.2,6.4-10.8c0-6.8-5.6-12.4-12.4-12.4c-4.8,0-9,2.8-11,6.7c-0.1-0.2-0.1-0.4-0.2-0.6c0.3-0.5,0.4-1,0.4-1.5
	s-0.1-1.1-0.4-1.5c0.3-0.5,0.4-1,0.4-1.5c0-0.6-0.1-1.1-0.4-1.6c0.3-0.5,0.4-1,0.4-1.5c0-0.6-0.1-1.1-0.4-1.5c0.3-0.5,0.4-1,0.4-1.5
	c0-1.7-1.4-3.1-3.1-3.1c-0.6,0-1.1,0.2-1.6,0.4c-0.9-0.6-2.2-0.6-3.1,0c-0.9-0.6-2.2-0.6-3.1,0c-0.9-0.6-2.2-0.6-3.1,0
	c-0.5-0.3-1-0.4-1.5-0.4c-1.7,0-3.1,1.4-3.1,3.1c0,0.5,0.2,1.1,0.4,1.5c-0.3,0.5-0.4,1-0.4,1.5c0,0.6,0.2,1.1,0.4,1.5
	c-0.3,0.5-0.4,1-0.4,1.6c0,0.5,0.2,1.1,0.4,1.5c-0.3,0.5-0.4,1-0.4,1.5s0.2,1.1,0.4,1.5c-0.3,0.5-0.4,1-0.4,1.6
	c0,0.5,0.2,1.1,0.4,1.5c-0.3,0.5-0.4,1-0.4,1.5s0.2,1.1,0.4,1.5c-0.3,0.5-0.4,1-0.4,1.6c0,0.6,0.2,1.1,0.5,1.6c-0.7-0.1-1.4,0-2,0.4
	c-0.5-0.3-1-0.4-1.5-0.4c-1.7,0-3.1,1.4-3.1,3.1c0,0.6,0.2,1.1,0.4,1.6c-0.3,0.5-0.4,1-0.4,1.5s0.2,1.1,0.4,1.5
	C2.2,35.9,2,36.4,2,37c0,0.6,0.2,1.1,0.4,1.6C2.2,39,2,39.5,2,40.1s0.2,1.1,0.4,1.5c-0.3,0.5-0.4,1-0.4,1.5c0,0.6,0.2,1.1,0.4,1.6
	c-0.3,0.5-0.4,1-0.4,1.5s0.2,1.1,0.4,1.5c-0.3,0.5-0.4,1-0.4,1.5c0,1.7,1.4,3.1,3.1,3.1c0.5,0,1.1-0.2,1.5-0.4
	c0.9,0.6,2.2,0.6,3.1,0c0.9,0.6,2.2,0.6,3.1,0c0.9,0.6,2.2,0.6,3.1,0c0.5,0.3,1,0.4,1.6,0.4c1.7,0,3.1-1.4,3.1-3.1
	c0-0.5-0.1-1.1-0.4-1.5c0.3-0.5,0.4-1,0.4-1.5s-0.1-1.1-0.4-1.5c0.3-0.5,0.4-1,0.4-1.6c0-0.5-0.1-1.1-0.4-1.5c0.3-0.5,0.4-1,0.4-1.5
	s-0.1-1.1-0.4-1.5c0.3-0.5,0.4-1,0.4-1.6c0-0.5-0.1-1.1-0.4-1.5c0.3-0.5,0.4-1,0.4-1.5s-0.1-1.1-0.4-1.5c0.3-0.5,0.4-1,0.4-1.6
	c0-0.6-0.2-1.1-0.5-1.6c0.7,0.1,1.4,0,2-0.4c0.5,0.3,1,0.4,1.6,0.4c0.8,0,1.6-0.3,2.1-0.9c1,3,3.1,5.5,5.8,7.1h-4.1
	c-1.3,0-2.3,1-2.3,2.3c0,0.3,0.1,0.5,0.1,0.8h-0.9c-1.3,0-2.3,1-2.3,2.3s1,2.3,2.3,2.3h0.9c-0.1,0.2-0.1,0.5-0.1,0.8
	c0,0.3,0.1,0.5,0.1,0.8h-0.9c-1.3,0-2.3,1-2.3,2.3c0,1.3,1,2.3,2.3,2.3h0.9c-0.1,0.2-0.1,0.5-0.1,0.8c0,1.3,1,2.3,2.3,2.3h20.1
	c1.3,0,2.3-1,2.3-2.3c0-1.3-1-2.3-2.3-2.3h-0.9c0.1-0.2,0.1-0.5,0.1-0.8c0-0.3,0-0.5-0.1-0.8h0.9c1.3,0,2.3-1,2.3-2.3
	c0-1.3-1-2.3-2.3-2.3h-0.9c0.1-0.2,0.1-0.5,0.1-0.8s0-0.5-0.1-0.8h0.9C49,40.1,50,39,50,37.7z"></path>
<path fill-rule="evenodd" clip-rule="evenodd" fill="#999999" d="M32.2,20.7c0-0.4,0.4-0.8,0.8-0.8c0.4,0,0.8,0.3,0.8,0.8
	c0,0.4-0.3,0.8-0.8,0.8C32.6,21.5,32.2,21.1,32.2,20.7z M35.3,20.7c0-1.3-1-2.3-2.3-2.3c-1.3,0-2.3,1-2.3,2.3c0,1.3,1,2.3,2.3,2.3
	C34.3,23,35.3,22,35.3,20.7z"></path>
<rect x="12.1" y="9.9" fill="#999999" width="1.5" height="1.5"></rect>
<rect x="15.2" y="9.9" fill="#999999" width="1.5" height="1.5"></rect>
<rect x="18.3" y="9.9" fill="#999999" width="1.5" height="1.5"></rect>
<rect x="21.4" y="9.9" fill="#999999" width="1.5" height="1.5"></rect>
<rect x="12.1" y="16.1" fill="#999999" width="1.5" height="1.5"></rect>
<rect x="15.2" y="16.1" fill="#999999" width="1.5" height="1.5"></rect>
<rect x="18.3" y="16.1" fill="#999999" width="1.5" height="1.5"></rect>
<rect x="21.4" y="16.1" fill="#999999" width="1.5" height="1.5"></rect>
<rect x="12.1" y="22.3" fill="#999999" width="1.5" height="1.5"></rect>
<rect x="15.2" y="22.3" fill="#999999" width="1.5" height="1.5"></rect>
<rect x="18.3" y="22.3" fill="#999999" width="1.5" height="1.5"></rect>
<rect x="21.4" y="22.3" fill="#999999" width="1.5" height="1.5"></rect>
<rect x="5.9" y="33.1" fill="#999999" width="1.5" height="1.5"></rect>
<rect x="9" y="33.1" fill="#999999" width="1.5" height="1.5"></rect>
<rect x="12.1" y="33.1" fill="#999999" width="1.5" height="1.5"></rect>
<rect x="15.2" y="33.1" fill="#999999" width="1.5" height="1.5"></rect>
<rect x="5.9" y="39.3" fill="#999999" width="1.5" height="1.5"></rect>
<rect x="9" y="39.3" fill="#999999" width="1.5" height="1.5"></rect>
<rect x="12.1" y="39.3" fill="#999999" width="1.5" height="1.5"></rect>
<rect x="15.2" y="39.3" fill="#999999" width="1.5" height="1.5"></rect>
<rect x="5.9" y="45.5" fill="#999999" width="1.5" height="1.5"></rect>
<rect x="9" y="45.5" fill="#999999" width="1.5" height="1.5"></rect>
<rect x="12.1" y="45.5" fill="#999999" width="1.5" height="1.5"></rect>
<rect x="15.2" y="45.5" fill="#999999" width="1.5" height="1.5"></rect>
<rect x="36.9" y="15.3" fill="#999999" width="1.5" height="1.5"></rect>
<rect x="36.9" y="23.8" fill="#999999" width="1.5" height="1.5"></rect>
<rect x="45.4" y="24.6" fill="#999999" width="1.5" height="1.6"></rect>
<rect x="41.5" y="30.8" fill="#999999" width="1.5" height="1.6"></rect>
<rect x="28.4" y="23.8" fill="#999999" width="1.6" height="1.5"></rect>
</svg>