<svg version="1.1" id="Camada_1" xmlns="http://www.w3.org/2000/svg" xmlns:xlink="http://www.w3.org/1999/xlink" x="0px" y="0px" viewBox="0 0 841.9 595.3" enable-background="new 0 0 841.9 595.3" xml:space="preserve">
<g>
	<g>
		<path fill="#999999" d="M639.3,238.7c-8.9-101.6-25.4-189.5-30.2-214c-1.7-8.5-11.5-12.5-18.6-7.6l-13,9c-2.5,1.7-5.8,1.7-8.3,0
			l-14.8-10.2c-8.2-5.6-19.2-5.6-27.3,0l-14.7,10.2c-2.5,1.7-5.8,1.7-8.3,0l-14.7-10.2c-8.2-5.6-19.2-5.6-27.3,0l-14.7,10.2
			c-2.5,1.7-5.8,1.7-8.3,0l-14.7-10.2c-8.2-5.6-19.2-5.6-27.4,0l-14.7,10.2c-2.5,1.7-5.8,1.7-8.3,0l-14.7-10.2
			c-8.2-5.6-19.2-5.6-27.4,0L317,26.1c-2.5,1.7-5.8,1.7-8.3,0L294,15.9c-8.2-5.6-19.2-5.6-27.3,0l-14.7,10.2c-2.5,1.7-5.8,1.7-8.3,0
			l-13-8.9c-7.2-4.9-17.1-0.9-18.6,7.7c-4,21.8-17.5,100.5-24.7,197.3c-9.2,124.7-4.5,228.4,14.1,308.2
			c4.5,19.3,16.1,36.3,32.6,47.7c8.2,5.6,19.2,5.6,27.4,0l14.7-10.2c2.5-1.7,5.8-1.7,8.3,0l14.7,10.2c8.2,5.6,19.2,5.6,27.4,0
			l14.7-10.2c2.5-1.7,5.8-1.7,8.3,0l14.7,10.2c8.2,5.6,19.2,5.6,27.4,0l14.7-10.2c2.5-1.7,5.8-1.7,8.3,0l14.7,10.2
			c8.2,5.6,19.2,5.6,27.3,0l14.7-10.2c2.5-1.7,5.8-1.7,8.3,0l14.7,10.2c8.2,5.6,19.2,5.6,27.3,0l14.7-10.2
			c9.4-6.5,19.2,14.4,36.7,14.4c10.2,0,15.5-5.9,18.4-7.5c14-9.7,24.4-23.1,30-38.9C645,470.8,650.9,370.8,639.3,238.7z M227.3,35.2
			l6.8,4.7c8.2,5.6,19.2,5.6,27.3,0l14.7-10.2c2.5-1.7,5.8-1.7,8.3,0l14.7,10.2c8.2,5.6,19.2,5.6,27.3,0l14.7-10.2
			c2.5-1.7,5.8-1.7,8.3,0l14.7,10.2c8.2,5.6,19.2,5.6,27.4,0l14.7-10.2c2.5-1.7,5.8-1.7,8.3,0l14.7,10.2c8.2,5.6,19.2,5.6,27.3,0
			l14.7-10.2c2.5-1.7,5.8-1.7,8.3,0l14.7,10.2c8.2,5.6,19.2,5.6,27.3,0l14.7-10.2c2.5-1.7,5.8-1.7,8.3,0l14.7,10.2
			c8.2,5.6,19.2,5.6,27.3,0l7-4.8c3.5,18.3,9.9,53.3,16.2,97.6h-397C218.7,86.8,224.5,51.6,227.3,35.2z M609.1,520.7H292.3
			c-4.6,0-8.4,3.8-8.4,8.4s3.8,8.4,8.4,8.4h310.5c-9,17.8-23,24.7-25.4,26.7c-2.5,1.7-5.8,1.7-8.3,0L554.4,554
			c-8.2-5.6-19.2-5.6-27.3,0l-14.7,10.2c-2.5,1.7-5.8,1.7-8.3,0L489.3,554c-8.2-5.6-19.2-5.6-27.3,0l-14.7,10.2
			c-2.5,1.7-5.8,1.7-8.3,0L424.2,554c-8.2-5.6-19.2-5.6-27.3,0l-14.7,10.2c-2.5,1.7-5.8,1.7-8.3,0l-14.7-10.2
			c-8.2-5.6-19.2-5.6-27.4,0L317,564.2c-2.5,1.7-5.8,1.7-8.3,0L294,554c-8.2-5.6-19.2-5.6-27.3,0L252,564.2c-2.5,1.7-5.8,1.7-8.3,0
			c-9.9-6.8-17.5-16.1-22.2-26.7h37.2c4.6,0,8.4-3.8,8.4-8.4s-3.8-8.4-8.4-8.4h-42.2c-25.7-116.7-17-266.8-5.3-371.1h401.3
			c3.7,27.8,7.3,58.5,10.1,90.6C633.4,363.5,628.8,457.7,609.1,520.7z"></path>
	</g>
</g>
<g>
	<g>
		<path fill="#999999" d="M486.9,67.6c-3-3.5-8.3-3.9-11.9-0.9c-3.5,3-3.9,8.3-0.9,11.9c2.2,2.5,3.4,5.8,3.4,9.1c0,7.7-6.3,14-14,14
			h-99.2c-7.7,0-14-6.3-14-14s6.3-14,14-14h84.9c4.6,0,8.4-3.8,8.4-8.4c0-4.6-3.8-8.4-8.4-8.4h-84.9c-17,0-30.8,13.8-30.8,30.8
			s13.8,30.8,30.8,30.8h99.2c17,0,30.8-13.8,30.8-30.8C494.4,80.3,491.7,73.2,486.9,67.6z"></path>
	</g>
</g>
<g>
	<g>
		<path fill="#999999" d="M539.9,502c-11.5-40.9-41.1-44.4-53.3-44.1c-0.1,0-5.9-0.1-9.8,5.1c-2.5,3.2-3.3,7.4-2.3,11.4
			c7.3,29.8,28,44.6,53,44.6C536.3,519,542.3,510.4,539.9,502z M492.1,474.9c9.7,1,22.8,6.5,30.1,26.9
			C512,500.5,498.5,494.7,492.1,474.9z"></path>
	</g>
</g>
<g>
	<g>
		<path fill="#999999" d="M535.9,339.7c-4.1-7.2-13.9-8.7-20.3-3.1c-30.9,27.3-20.6,56.4-14.7,67.6c4.1,7.8,14.5,9.2,20.9,3.2
			C552.5,378.1,541.9,350.3,535.9,339.7z M513.6,391.6c-3.6-9.7-4.8-24.3,9.7-39.2C527,361.4,528.2,375.6,513.6,391.6z"></path>
	</g>
</g>
<g>
	<g>
		<path fill="#999999" d="M465.2,460.8c-2.6-3.1-6.5-4.9-10.6-4.8c-41.2,0.7-52.3,29.5-55.1,41.8c-2,8.6,5,16.4,13.8,15.9
			c42.4-2.3,52.4-30.3,54.7-42.2C468,471.4,469.4,465.8,465.2,460.8z M417.3,496.5c3.6-9.7,12.2-21.6,32.9-23.5
			C447,482.3,438.8,493.9,417.3,496.5z"></path>
	</g>
</g>
<g>
	<g>
		<path fill="#999999" d="M562.3,394.6c-40.4,8.1-46.1,38.4-46.7,51.1c-0.4,8.8,7.9,15.2,16.5,13.2c41.3-9.9,46.1-39.2,46.2-51.4
			C578.4,399.1,570.7,392.9,562.3,394.6z M533,441.1c1.8-10.1,8.1-23.4,28.1-29C559.7,421.8,553.6,434.7,533,441.1z"></path>
	</g>
</g>
<g>
	<g>
		<path fill="#999999" d="M375.1,481.5c-34.8-22.1-59.9-4.1-69,4.6c-6.4,6.1-4.8,16.5,2.8,20.9c27.7,16.2,52.3,11.8,68.9-5.2
			c0,0,0,0,0,0C383.6,495.9,382.3,486.1,375.1,481.5z M321.7,494.9c8.3-6.1,22-11.4,40.4-1.5C354.4,499.4,341.1,504.5,321.7,494.9z"></path>
	</g>
</g>
<g>
	<g>
		<path fill="#999999" d="M548.2,262.1C548.2,262.1,548.2,262.1,548.2,262.1c-6.9-4.6-16.3-1.6-19.5,6.3
			c-15.5,38.2,6.7,59.6,17,67.1c7.1,5.1,17,1.9,20.1-6.5C580.2,289.1,558.3,268.9,548.2,262.1z M551.5,318.5
			c-7.5-7.1-15.1-19.6-8.8-39.4C550,285.6,557.4,297.7,551.5,318.5z"></path>
	</g>
</g>
<g>
	<g>
		<path fill="#999999" d="M584.5,330.6c-8.3-2.7-16.8,3.4-17.1,12.3c-1.6,42.4,25.5,54.9,37.2,58.3c8,2.3,16-3.4,16.7-12
			C624.2,348.2,596.5,334.6,584.5,330.6z M584.1,348.5c9.3,4.4,20.4,14.1,20.4,34.8C595.6,379.4,584.8,370.1,584.1,348.5z"></path>
	</g>
</g>
<g>
	<g>
		<path fill="#999999" d="M411,453.4c-17.8-37.2-48.6-35.3-61-32.7c-8.6,1.8-12.9,11.3-8.8,19.2c14.6,27.8,34.6,33.6,48.8,33.6
			c5.6,0,8.9-0.8,12.4-1.5C410.5,470.1,414.7,461.1,411,453.4z M358.6,436.4c10.3-0.8,24.7,2.1,35,20.1
			C383.9,457.5,369.9,454.8,358.6,436.4z"></path>
	</g>
</g>
<g>
	<g>
		<path fill="#999999" d="M507.7,427.7c-15.2-39.6-45-40.5-57-39.1c-8.2,1-13.4,9.4-10.6,17.5c10,29.3,31.9,41.7,56.7,39.6
			C505.5,445,510.8,436,507.7,427.7z M457.6,405.1c9.8,0.2,23.3,4.5,32.4,24.1C479.7,428.7,465.7,424.2,457.6,405.1z"></path>
	</g>
</g>
<g>
	<g>
		<path fill="#999999" d="M602.9,453.1c-1.1-3.7-3.8-6.7-7.4-8.2c-3.8-1.6-8-1.3-11.6,0.6c-36.2,19.6-32.8,50.2-29.7,62.5
			c2.2,8.6,12.1,12.2,19.6,7.8C610.4,494.3,606.3,464.8,602.9,453.1z M569.5,498.6c-1.3-10.2,0.9-24.8,18.4-36
			C589.3,472.3,587.3,486.4,569.5,498.6z"></path>
	</g>
</g>
<g>
	<g>
		<path fill="#999999" d="M334.2,155.5c-70.5,0-127.8,57.3-127.8,127.8s57.3,127.8,127.8,127.8S462,353.8,462,283.3
			S404.7,155.5,334.2,155.5z M334.2,394.3c-61.2,0-111-49.8-111-111s49.8-111,111-111s111,49.8,111,111S395.4,394.3,334.2,394.3z"></path>
	</g>
</g>
<g>
	<g>
		<path fill="#999999" d="M423.1,263.9c-1-4.5-5.5-7.4-10-6.4c-4.5,1-7.4,5.5-6.4,10c1.1,5.2,1.7,10.5,1.7,15.8
			c0,38-28.8,69.5-65.7,73.7v-16.5c5.6,3.8,12,5.2,18.5,4c10.5-1.9,20.5-10,30.6-24.7c3.8-5.5,1.2-13.1-5.1-15.2
			c-7.5-2.5-14.3-4-20.2-4.4c5.9-5.4,10.9-13.8,15.1-25.5c2.2-6.2-2.2-12.9-8.8-13.3c-9.6-0.6-17.6,0.1-24.1,2
			c13.5-13.7,5.2-33.1-6.4-48.6c-4-5.3-11.9-5.3-15.9,0c-11.5,15.3-19.9,34.8-6.4,48.6c-6.5-1.9-14.5-2.5-24.1-2
			c-3.1,0.2-6,1.8-7.7,4.4c-1.7,2.6-2.1,5.9-1.1,8.8c4.1,11.7,9.1,20.1,15.1,25.5c-6,0.4-12.7,1.9-20.2,4.4c-3,1-5.4,3.4-6.4,6.3
			c-1,3-0.5,6.3,1.2,8.9c10.1,14.8,20.1,22.8,30.6,24.7c6.6,1.2,12.9-0.3,18.5-4V357c-36.9-4.2-65.7-35.6-65.7-73.7
			c0-40.9,33.3-74.1,74.1-74.1c23.8,0,46.3,11.6,60.3,30.9c2.7,3.8,8,4.6,11.7,1.9c3.8-2.7,4.6-8,1.9-11.7
			c-17.1-23.8-44.7-38-73.9-38c-50.2,0-91,40.8-91,91s40.8,91,91,91c50.2,0,91-40.8,91-91C425.2,276.8,424.5,270.2,423.1,263.9z
			 M372,318c-5.5,6.3-13.4,13.2-20.1,8.4c-0.9-0.7-1.4-1.9-1-3C353.4,315.6,363.9,316.3,372,318z M347.3,282.6
			c1.7-1.5,5.7-3.8,14.5-4.4c-3.3,6.6-8.6,14.3-15.5,11.7C343.7,289,345.2,284.5,347.3,282.6z M342.7,306.5
			C342.7,306.5,342.7,306.5,342.7,306.5C342.7,306.5,342.7,306.5,342.7,306.5L342.7,306.5z M310.3,328c-2.5-0.5-7.3-2.4-13.8-10
			c8.2-1.7,18.7-2.4,21.2,5.4C318.6,326.6,313.6,328.5,310.3,328z M316.4,289.8c-2.1-1-5.7-3.8-9.7-11.6c7.4,0.5,16.5,2.3,16.9,9.7
			C323.7,290.7,319,291.1,316.4,289.8z M325.8,306.5C325.8,306.5,325.8,306.5,325.8,306.5C325.8,306.5,325.8,306.5,325.8,306.5
			L325.8,306.5z M338.6,247.7c-0.4,2.8-3.3,6.6-5.6,4.9c-6-4.4-2.4-13,1.2-19.4C338.6,240.8,338.9,245.4,338.6,247.7z"></path>
	</g>
</g>
</svg>