<svg version="1.1" id="Camada_1" xmlns="http://www.w3.org/2000/svg" xmlns:xlink="http://www.w3.org/1999/xlink" x="0px" y="0px" viewBox="0 0 52.1 57.4" enable-background="new 0 0 52.1 57.4" xml:space="preserve">
<path fill-rule="evenodd" clip-rule="evenodd" fill="#999999" d="M27.7,44.9H22c-0.2,0-0.4-0.2-0.4-0.4c0-0.1,0-0.2,0.1-0.2l2.6-3.9
	c0.1-0.2,0.4-0.3,0.6-0.3s0.5,0.1,0.6,0.3l2.6,3.9c0,0.1,0.1,0.1,0.1,0.2C28.1,44.7,27.9,44.9,27.7,44.9z M16.2,44.9h-5.7
	c-0.2,0-0.4-0.2-0.4-0.4c0-0.1,0-0.2,0.1-0.2l2.6-3.9c0.1-0.2,0.4-0.3,0.6-0.3c0.2,0,0.5,0.1,0.6,0.3l2.6,3.9c0,0.1,0.1,0.1,0.1,0.2
	C16.6,44.7,16.4,44.9,16.2,44.9z M18.5,37.9c0.3-0.4,0.9-0.4,1.2,0l2.1,3.2l-1,1.4h-3.5l-1-1.4L18.5,37.9z M26.8,39.4
	c-0.4-0.7-1.2-1-2-1c-0.8,0-1.5,0.4-2,1l-0.1,0.1L21,37c-0.4-0.7-1.2-1.1-2-1.1c-0.8,0-1.5,0.4-1.9,1.1l-1.7,2.6l-0.1-0.1
	c-0.4-0.7-1.2-1-2-1c-0.8,0-1.5,0.4-2,1l-2.6,3.9c-0.2,0.3-0.4,0.7-0.4,1.2c0,1.2,0.9,2.1,2.1,2.1h5.7c1.1,0,2.1-0.9,2.1-2.1
	c0-0.1,0-0.2,0-0.4H20c0,0.1-0.1,0.3-0.1,0.4c0,1.2,0.9,2.1,2.1,2.1h5.7c1.1,0,2.1-0.9,2.1-2.1c0-0.4-0.1-0.8-0.3-1.2L26.8,39.4z"></path>
<path fill-rule="evenodd" clip-rule="evenodd" fill="#999999" d="M10.2,32.1c0.1-0.1,0.1-0.1,0.2-0.1L15,31c0.2,0,0.5,0,0.6,0.2
	c0.2,0.2,0.2,0.4,0.2,0.6l-0.9,4.6c0,0.1,0,0.1-0.1,0.2c-0.2,0.2-0.4,0.2-0.6,0l-4-4c-0.1-0.1-0.1-0.2-0.1-0.3
	C10.1,32.2,10.1,32.1,10.2,32.1z M13,37.8c0.4,0.4,0.9,0.6,1.5,0.6c0.5,0,1.1-0.2,1.4-0.6c0.3-0.3,0.5-0.7,0.6-1.1l0.9-4.6
	c0.1-0.8-0.1-1.5-0.6-2.1c-0.6-0.5-1.3-0.8-2.1-0.6l-4.6,0.9c-0.4,0.1-0.8,0.3-1.1,0.6c-0.4,0.4-0.6,0.9-0.6,1.5
	c0,0.5,0.2,1.1,0.6,1.4L13,37.8z"></path>
<path fill-rule="evenodd" clip-rule="evenodd" fill="#999999" d="M28,32.7l-4,4c-0.2,0.2-0.4,0.2-0.6,0c-0.1-0.1-0.1-0.1-0.1-0.2
	l-0.9-4.6c0-0.2,0-0.5,0.2-0.6c0.1-0.1,0.3-0.2,0.5-0.2l0.1,0l4.6,0.9c0.1,0,0.2,0.1,0.2,0.1c0.1,0.1,0.1,0.2,0.1,0.3
	C28.1,32.5,28.1,32.6,28,32.7z M29.1,30.9c-0.3-0.3-0.7-0.5-1.1-0.6l-4.6-0.9c-0.8-0.2-1.6,0.1-2.1,0.6c-0.6,0.6-0.8,1.4-0.6,2.1
	l0.9,4.6c0.1,0.4,0.3,0.8,0.6,1.1c0.4,0.4,0.9,0.6,1.5,0.6s1.1-0.2,1.5-0.6l4-4c0.4-0.4,0.6-0.9,0.6-1.4
	C29.7,31.8,29.5,31.3,29.1,30.9z"></path>
<path fill-rule="evenodd" clip-rule="evenodd" fill="#999999" d="M18.3,26.1h1.6c1.4,0,2.5-1.1,2.5-2.5v-0.8c0-1.4-1.1-2.5-2.5-2.5
	h-1.6c-0.4,0-0.8-0.4-0.8-0.8v-0.8c0-0.5,0.4-0.8,0.8-0.8h1.6c0.5,0,0.8,0.4,0.8,0.8v0.8h1.6v-0.8c0-1.4-1.1-2.5-2.5-2.5h-1.6
	c-1.4,0-2.5,1.1-2.5,2.5v0.8c0,1.4,1.1,2.5,2.5,2.5h1.6c0.5,0,0.8,0.4,0.8,0.8v0.8c0,0.5-0.4,0.8-0.8,0.8h-1.6
	c-0.4,0-0.8-0.4-0.8-0.8v-0.8h-1.6v0.8C15.8,25,16.9,26.1,18.3,26.1z"></path>
<path fill-rule="evenodd" clip-rule="evenodd" fill="#999999" d="M19.1,15.4c3.2,0,5.7,2.6,5.7,5.7s-2.6,5.7-5.7,5.7
	s-5.7-2.6-5.7-5.7S15.9,15.4,19.1,15.4z M19.1,28.6c4.1,0,7.4-3.3,7.4-7.4s-3.3-7.4-7.4-7.4c-4.1,0-7.4,3.3-7.4,7.4
	S15,28.6,19.1,28.6z"></path>
<path fill-rule="evenodd" clip-rule="evenodd" fill="#999999" d="M47,44.1H32.7c-0.3-1.1-0.5-2.2-0.5-3.3h2.5c0,0.1,0,0.2,0,0.4
	c0,1.1,0.9,2.1,2.1,2.1h5.7c1.1,0,2.1-0.9,2.1-2.1c0-0.4-0.1-0.8-0.4-1.2l-2.6-3.9c-0.4-0.7-1.2-1.1-2-1.1c-0.8,0-1.5,0.4-2,1
	l-0.1,0.1l-1.7-2.6c-0.4-0.7-1.2-1-1.9-1c-0.6,0-1.2,0.2-1.6,0.7v-8.2c0.5,0.1,1.1,0.2,1.6,0.2c4.1,0,7.4-3.3,7.4-7.4
	c0-3.8-2.9-6.9-6.5-7.3V9.7H47c-1.1,2-1.8,4.3-1.8,6.6v21.3C45.3,39.9,45.9,42.1,47,44.1z M46.6,47.5c-0.3-0.2-0.6-0.2-0.9,0l-2,1.3
	l-2-1.3c-0.3-0.2-0.6-0.2-0.9,0l-2,1.3l-2-1.3c-0.3-0.2-0.6-0.2-0.9,0l-1.2,0.8v-0.1h0c0-0.2,0-0.3-0.1-0.5c-0.5-0.6-0.9-1.3-1.2-2
	h14.4v2.6L46.6,47.5z M31.8,50.8c-0.3-0.2-0.6-0.2-0.9,0l-2,1.3l-2-1.3c-0.3-0.2-0.6-0.2-0.9,0l-2,1.3l-2-1.3
	c-0.3-0.2-0.6-0.2-0.9,0l-2,1.3l-2-1.3c-0.3-0.2-0.6-0.2-0.9,0l-2,1.3l-2-1.3c-0.3-0.2-0.6-0.2-0.9,0l-2,1.3l-2-1.3
	c-0.3-0.2-0.6-0.2-0.9,0l-1.2,0.8V49H33v2.6L31.8,50.8z M7.6,40.8V19.5C7.6,17.3,7,15,5.9,13h26.4c-1.1,2-1.8,4.3-1.8,6.6v21.3
	c0,2.3,0.6,4.6,1.8,6.6H5.9C7,45.4,7.6,43.1,7.6,40.8z M6.4,9.6c0.3,0.2,0.6,0.2,0.9,0l2-1.3l2,1.3c0.3,0.2,0.6,0.2,0.9,0l2-1.3
	l2,1.3c0.3,0.2,0.6,0.2,0.9,0l2-1.3l2,1.3c0.3,0.2,0.6,0.2,0.9,0l2-1.3l2,1.3c0.3,0.2,0.6,0.2,0.9,0l2-1.3l2,1.3
	c0.3,0.2,0.6,0.2,0.9,0L33,8.8v2.6H5.2V8.8L6.4,9.6z M32.2,22.7c0.3,0.1,0.5,0.1,0.8,0.1h1.6c1.4,0,2.5-1.1,2.5-2.5v-0.8
	c0-1.4-1.1-2.5-2.5-2.5H33c-0.2,0-0.4-0.1-0.5-0.2c0.2-0.8,0.5-1.5,0.8-2.3h1.3c0.4,0,0.8,0.4,0.8,0.8v0.8h1.6v-0.8
	c0-1.4-1.1-2.5-2.5-2.5h-0.4l0.2-0.3c0.1-0.1,0.1-0.3,0.1-0.4c2.8,0.4,4.9,2.8,4.9,5.7c0,3.2-2.6,5.7-5.7,5.7
	c-0.6,0-1.1-0.1-1.6-0.2V22.7z M32.2,18.6c0.2,0.1,0.5,0.1,0.8,0.1h1.6c0.4,0,0.8,0.4,0.8,0.8v0.8c0,0.4-0.4,0.8-0.8,0.8H33
	c-0.5,0-0.8-0.4-0.8-0.8v-0.8C32.2,19.2,32.2,18.9,32.2,18.6z M35.6,39.2h-3.4v-3l1.1-1.6c0.3-0.4,0.9-0.4,1.2,0l2.1,3.2L35.6,39.2z
	 M39,37.1c0.1-0.2,0.4-0.3,0.6-0.3s0.5,0.1,0.6,0.3l2.6,3.9c0,0.1,0.1,0.2,0.1,0.2c0,0.2-0.2,0.4-0.4,0.4h-5.7
	c-0.2,0-0.4-0.2-0.4-0.4c0-0.1,0-0.2,0.1-0.2L39,37.1z M21.1,6.3c0.3,0.2,0.6,0.2,0.9,0L24,5l2,1.3c0.3,0.2,0.6,0.2,0.9,0l2-1.3
	l2,1.3c0.3,0.2,0.6,0.2,0.9,0l2-1.3l2,1.3c0.3,0.2,0.6,0.2,0.9,0l2-1.3l2,1.3c0.3,0.2,0.6,0.2,0.9,0l2-1.3l2,1.3
	c0.3,0.2,0.6,0.2,0.9,0l1.2-0.8v2.6H34.6V7.3c0-0.3-0.2-0.6-0.4-0.7c-0.3-0.1-0.6-0.1-0.8,0l-2,1.3l-2-1.3c-0.3-0.2-0.6-0.2-0.9,0
	l-2,1.3l-2-1.3c-0.3-0.2-0.6-0.2-0.9,0l-2,1.3l-1.6-1.1V5.5L21.1,6.3z M49.2,9.4c0.1-0.1,0.2-0.3,0.2-0.5V4c0-0.3-0.2-0.6-0.4-0.7
	c-0.3-0.1-0.6-0.1-0.8,0l-2,1.3l-2-1.3c-0.3-0.2-0.6-0.2-0.9,0l-2,1.3l-2-1.3c-0.3-0.2-0.6-0.2-0.9,0l-2,1.3l-2-1.3
	c-0.3-0.2-0.6-0.2-0.9,0l-2,1.3l-2-1.3c-0.3-0.2-0.6-0.2-0.9,0l-2,1.3l-2-1.3c-0.3-0.2-0.6-0.2-0.9,0l-2,1.3l-2-1.3
	c-0.2-0.2-0.6-0.2-0.8,0c-0.3,0.1-0.4,0.4-0.4,0.7v2.8l-1.6,1.1l-2-1.3c-0.3-0.2-0.6-0.2-0.9,0l-2,1.3l-2-1.3
	c-0.3-0.2-0.6-0.2-0.9,0l-2,1.3l-2-1.3C4.6,6.4,4.2,6.4,4,6.5C3.7,6.7,3.5,6.9,3.5,7.3v4.9h0c0,0.2,0,0.4,0.1,0.5
	c1.5,2,2.3,4.4,2.3,6.9v21.3c0,2.5-0.8,4.9-2.3,6.9c-0.1,0.1-0.1,0.3-0.1,0.5h0v4.9c0,0.3,0.2,0.6,0.4,0.7c0.3,0.1,0.6,0.1,0.8,0
	l2-1.3l2,1.3c0.3,0.2,0.6,0.2,0.9,0l2-1.3l2,1.3c0.3,0.2,0.6,0.2,0.9,0l2-1.3l2,1.3c0.3,0.2,0.6,0.2,0.9,0l2-1.3l2,1.3
	c0.3,0.2,0.6,0.2,0.9,0l2-1.3l2,1.3c0.3,0.2,0.6,0.2,0.9,0l2-1.3l2,1.3c0.1,0.1,0.3,0.1,0.5,0.1c0.1,0,0.3,0,0.4-0.1
	c0.3-0.1,0.4-0.4,0.4-0.7v-2.8l1.6-1.1l2,1.3c0.3,0.2,0.6,0.2,0.9,0l2-1.3l2,1.3c0.3,0.2,0.6,0.2,0.9,0l2-1.3l2,1.3
	c0.1,0.1,0.3,0.1,0.5,0.1c0.1,0,0.3,0,0.4-0.1c0.3-0.1,0.4-0.4,0.4-0.7v-4.9h0c0-0.2,0-0.3-0.1-0.5c-1.5-2-2.3-4.4-2.3-6.9V16.3
	C46.9,13.8,47.7,11.4,49.2,9.4z"></path>
<path fill-rule="evenodd" clip-rule="evenodd" fill="#999999" d="M42.7,29.4l-4,4c-0.2,0.2-0.4,0.2-0.6,0c-0.1-0.1-0.1-0.1-0.1-0.2
	l-0.9-4.6c0-0.2,0-0.5,0.2-0.6c0.1-0.1,0.3-0.2,0.5-0.2l0.1,0l4.6,0.9c0.1,0,0.2,0,0.2,0.1c0.1,0.1,0.1,0.2,0.1,0.3
	S42.8,29.3,42.7,29.4z M43.9,27.6c-0.3-0.3-0.7-0.5-1.1-0.6l-4.6-0.9c-0.8-0.1-1.5,0.1-2.1,0.6c-0.6,0.5-0.8,1.3-0.6,2.1l0.9,4.6
	c0.1,0.4,0.3,0.8,0.6,1.1c0.4,0.4,0.9,0.6,1.4,0.6c0.5,0,1.1-0.2,1.5-0.6l4-4c0.4-0.4,0.6-0.9,0.6-1.5C44.5,28.5,44.3,28,43.9,27.6z
	"></path>
</svg>